<?xml version="1.0" encoding="UTF-8"?>
<svg id="Layer_1" data-name="Layer 1" xmlns="http://www.w3.org/2000/svg" viewBox="0 0 352.04 511.81">
  <defs>
    <style>
      .cls-1 {
        fill: #8183bf;
      }

      .cls-2 {
        fill: #df2926;
      }

      .cls-3 {
        fill: #f15645;
      }

      .cls-4 {
        fill: #901e1d;
      }

      .cls-5 {
        fill: #fcb653;
      }

      .cls-6 {
        fill: #ffd765;
      }

      .cls-7 {
        fill: #3f1611;
      }

      .cls-8 {
        fill: none;
        stroke: #3f1611;
        stroke-linecap: round;
        stroke-linejoin: round;
        stroke-width: 12px;
      }
    </style>
  </defs>
  <circle class="cls-1" cx="191.68" cy="160.36" r="160.36"/>
  <circle class="cls-1" cx="160.36" cy="351.45" r="160.36"/>
  <g>
    <circle class="cls-7" cx="157.43" cy="338.79" r="128.16"/>
    <circle class="cls-6" cx="157.43" cy="338.79" r="115.49"/>
    <g>
      <path class="cls-8" d="M93.64,305.95s0-15.89,15.03-15.89,17.6,15.89,17.6,15.89"/>
      <path class="cls-8" d="M188.59,305.95s0-15.89,15.03-15.89,17.6,15.89,17.6,15.89"/>
    </g>
    <path class="cls-5" d="M235.83,254c5.58,8.1,34.7,53.11,26.14,97.45-9.42,48.84-46.62,96.81-107.76,102.79,1.07.03,2.14.05,3.21.05,63.79,0,115.49-51.71,115.49-115.49,0-33.52-14.28-63.7-37.09-84.79Z"/>
    <path class="cls-7" d="M156.81,387.34c-9.89,0-18.71-1.22-26.13-2.87-23.29-5.18-37.83-15.46-38.44-15.9-2.69-1.93-3.31-5.68-1.38-8.37,1.93-2.69,5.67-3.31,8.36-1.39h0c.13.09,13.51,9.48,34.56,14.06,27.99,6.09,55.67,1.26,82.28-14.35,2.86-1.67,6.54-.72,8.21,2.14,1.68,2.86.72,6.53-2.14,8.21-24.04,14.1-46.6,18.47-65.33,18.47Z"/>
  </g>
  <g>
    <circle class="cls-7" cx="188.75" cy="147.7" r="128.16"/>
    <circle class="cls-6" cx="188.75" cy="147.7" r="115.49"/>
    <g>
      <path class="cls-8" d="M124.96,114.86s0-15.89,15.03-15.89,17.6,15.89,17.6,15.89"/>
      <path class="cls-8" d="M219.91,114.86s0-15.89,15.03-15.89,17.6,15.89,17.6,15.89"/>
    </g>
    <path class="cls-7" d="M262.45,150.24c-1.13-1.2-2.71-1.88-4.37-1.88H119.41c-1.7,0-3.31.72-4.45,1.98-1.14,1.26-1.69,2.94-1.52,4.63,4.75,46.89,39.53,62.4,59.84,67.48,5.49,1.37,11.11,2.06,16.73,2.06,7.59,0,15.21-1.25,22.56-3.72,10.52-3.55,18.9-8.61,25.57-14.38.87-.29,1.68-.76,2.37-1.46.55-.57.97-1.22,1.25-1.91,20.36-20.27,22.23-46.81,22.32-48.31.1-1.65-.49-3.27-1.62-4.47ZM208.74,209.4c-10.62,3.58-21.88,4.06-32.55,1.4-6.06-1.51-12.52-3.77-18.74-7.1,4.37-3.93,15.15-11.27,34.55-11.27,16.4,0,27.62,4.62,33.92,8.27-4.8,3.44-10.47,6.44-17.18,8.71ZM235.24,192.41c-7.1-4.75-21.48-11.99-43.24-11.99-26.33,0-40.24,11.77-44.77,16.5-9.76-7.94-17.79-19.55-20.91-36.57h124.85c-1.55,7.62-5.58,20.73-15.92,32.05Z"/>
    <path class="cls-3" d="M208.74,209.4c-10.62,3.58-21.88,4.06-32.55,1.4-6.06-1.51-12.52-3.77-18.74-7.1,4.37-3.93,15.15-11.27,34.55-11.27,16.4,0,27.62,4.62,33.92,8.27-4.8,3.44-10.47,6.44-17.18,8.71Z"/>
    <path class="cls-4" d="M235.24,192.41c-7.1-4.75-21.48-11.99-43.24-11.99-26.33,0-40.24,11.77-44.77,16.5-9.76-7.94-17.79-19.55-20.91-36.57h124.85c-1.55,7.62-5.58,20.73-15.92,32.05Z"/>
    <path class="cls-2" d="M220.31,199.01s-18.46,8.16-31.34,8.16c-10.18,0-21.96-5.09-26.45-7.23-2.19,1.36-3.88,2.69-5.07,3.76,6.22,3.33,12.68,5.59,18.74,7.1,10.67,2.67,21.93,2.18,32.55-1.4,6.71-2.26,12.38-5.27,17.18-8.71-1.35-.78-2.93-1.6-4.73-2.42l-.87.73Z"/>
    <path class="cls-5" d="M267.15,62.91c5.58,8.1,34.7,53.11,26.14,97.45-9.42,48.84-46.62,96.81-107.76,102.79,1.07.03,2.14.05,3.21.05,63.79,0,115.49-51.71,115.49-115.49,0-33.52-14.28-63.7-37.09-84.79Z"/>
  </g>
</svg>