<?xml version="1.0" encoding="UTF-8"?>
<svg id="Layer_1" data-name="Layer 1" xmlns="http://www.w3.org/2000/svg" viewBox="0 0 389.36 390">
  <defs>
    <style>
      .cls-1 {
        fill: #6d6d6d;
      }
    </style>
  </defs>
  <path class="cls-1" d="M173.98.93c95.72-9.23,185.58,51.31,209.08,144.85,39.96,159.07-117.55,292.64-267,227.23-14.74-4.56-80.85,18.99-89.25,15.29-1.19-.53-2.74-1.31-3.38-2.39-3.66-6.21,8.04-70,8.01-82.41C-47.03,182.33,29.16,14.89,173.98.93ZM179.64,69.26c-160.12,17.09-140,267.17,27.92,252.01,163.19-14.73,142.58-270.21-27.92-252.01Z"/>
  <path class="cls-1" d="M257.23,259.86c-44.16,42.2-120.69,28.64-144.53-27.84-2.89-6.85-10.39-24.69,1.78-24.75l162.96.48,4.84,4.73c-2.63,16.55-12.97,35.85-25.05,47.39Z"/>
  <path class="cls-1" d="M212.35,167.47c7.36-28.88,46.66-36.49,64.22-12.02,2.11,2.94,9.93,16.26,1.26,12.08-14.59-7.03-23.24-9.24-39.94-7.72-10.42.95-15.9,6.22-25.54,7.66Z"/>
  <path class="cls-1" d="M169.91,152.95c1.44,1.56,11.43,16.28,5.42,16.39-.62.01-5.88-4.28-8.13-5.13-19.38-7.32-41.85-6.83-59.26,5.18,4.11-29.06,41.82-38.13,61.97-16.43Z"/>
</svg>