<?xml version="1.0" encoding="UTF-8"?>
<svg id="Layer_1" data-name="Layer 1" xmlns="http://www.w3.org/2000/svg" viewBox="0 0 335.33 335.33">
  <defs>
    <style>
      .cls-1 {
        fill: #9ab3dd;
      }

      .cls-2 {
        fill: #ffd765;
      }

      .cls-3 {
        fill: #3f1611;
      }
    </style>
  </defs>
  <circle class="cls-3" cx="167.66" cy="167.66" r="167.66"/>
  <circle class="cls-2" cx="167.66" cy="167.66" r="151.63"/>
  <g>
    <path class="cls-3" d="M136.16,135.19h-70.33c-4.34,0-7.86,3.52-7.86,7.86s3.52,7.86,7.86,7.86h3.67v140.95c0,4.34,3.52,7.86,7.86,7.86s7.86-3.52,7.86-7.86v-140.95h25.91v168.38c0,4.34,3.52,7.86,7.86,7.86s7.86-3.52,7.86-7.86v-168.38h9.3c4.34,0,7.86-3.52,7.86-7.86s-3.52-7.86-7.86-7.86Z"/>
    <path class="cls-1" d="M85.22,150.91h25.91v157.27s-18.61-7.88-25.91-12.94v-144.33Z"/>
    <path class="cls-3" d="M199.17,135.19h70.33c4.34,0,7.86,3.52,7.86,7.86s-3.52,7.86-7.86,7.86h-3.67s0,140.95,0,140.95c0,4.34-3.52,7.86-7.86,7.86s-7.86-3.52-7.86-7.86v-140.95s-25.91,0-25.91,0v168.38c0,4.34-3.52,7.86-7.86,7.86s-7.86-3.52-7.86-7.86v-168.38s-9.3,0-9.3,0c-4.34,0-7.86-3.52-7.86-7.86s3.52-7.86,7.86-7.86Z"/>
    <path class="cls-1" d="M250.1,150.91h-25.91s0,157.27,0,157.27c0,0,18.61-7.88,25.91-12.94v-144.33Z"/>
  </g>
  <path class="cls-3" d="M142.92,227.84c1.46,0,2.94.41,4.26,1.26,18.68,12.07,41.18-.13,41.41-.26,3.79-2.1,8.57-.75,10.69,3.03,2.11,3.78.78,8.55-2.99,10.68-1.25.7-30.89,17.04-57.64-.25-3.65-2.36-4.69-7.22-2.34-10.87,1.5-2.33,4.03-3.6,6.61-3.6Z"/>
</svg>