<?xml version="1.0" encoding="UTF-8"?>
<svg id="Layer_1" data-name="Layer 1" xmlns="http://www.w3.org/2000/svg" viewBox="0 0 1675.4 359.79">
  <defs>
    <style>
      .cls-1 {
        fill: #3e1915;
      }
    </style>
  </defs>
  <g>
    <path class="cls-1" d="M352.08,315.99V89.02c0-12.31,8.85-21.16,21.16-21.16h43.47c42.32,0,63.09,23.47,63.09,66.55v136.18c0,43.09-20.77,66.55-63.09,66.55h-43.47c-12.31,0-21.16-8.85-21.16-21.16ZM415.94,298.68c13.46,0,21.54-6.92,21.54-26.16v-140.02c0-19.23-8.08-26.16-21.54-26.16h-21.54v192.34h21.54Z"/>
    <path class="cls-1" d="M517.88,318.68c0-2.31.38-4.62.77-6.92l36.55-218.89c3.08-17.7,15.39-28.85,33.08-28.85s29.62,11.16,32.7,28.85l36.54,218.89c.39,2.31.39,4.23.39,6.16,0,13.08-6.92,21.54-19.23,21.54s-20-8.08-21.93-20.39l-5-35.39v.77h-50.39l-5,35.39c-1.92,13.46-9.23,19.62-20,19.62-10,0-18.46-6.54-18.46-20.77ZM606.74,247.9l-20-136.95h-.77l-19.62,136.95h40.39Z"/>
    <path class="cls-1" d="M700.22,315.99V89.02c0-12.31,8.85-21.16,21.16-21.16h43.47c42.31,0,63.09,23.47,63.09,66.55v136.18c0,43.09-20.77,66.55-63.09,66.55h-43.47c-12.31,0-21.16-8.85-21.16-21.16ZM764.07,298.68c13.46,0,21.54-6.92,21.54-26.16v-140.02c0-19.23-8.08-26.16-21.54-26.16h-21.54v192.34h21.54Z"/>
  </g>
  <path class="cls-1" d="M866.02,318.68c0-2.31.38-4.62.77-6.92l36.55-218.89c3.08-17.7,15.39-28.85,33.08-28.85s29.62,11.16,32.7,28.85l36.55,218.89c.38,2.31.38,4.23.38,6.16,0,13.08-6.92,21.54-19.24,21.54s-20-8.08-21.93-20.39l-5-35.39v.77h-50.39l-5,35.39c-1.92,13.46-9.23,19.62-20,19.62-10,0-18.46-6.54-18.46-20.77ZM954.88,247.9l-20-136.95h-.77l-19.62,136.95h40.39Z"/>
  <path class="cls-1" d="M1048.36,315.99V89.02c0-12.31,8.85-21.16,21.16-21.16h42.7c43.85,0,62.7,20.39,62.7,61.93v10.77c0,27.7-8.46,45.01-27.31,52.7v.77c22.7,7.69,31.54,27.7,31.54,56.16v23.08c0,41.55-21.93,63.86-64.24,63.86h-45.39c-12.31,0-21.16-8.85-21.16-21.16ZM1107.21,177.5c15.77,0,25.39-6.92,25.39-28.47v-15c0-19.23-6.54-27.7-21.54-27.7h-20.39v71.17h16.54ZM1114.91,298.68c14.23,0,21.93-6.54,21.93-26.54v-23.47c0-25.01-8.08-32.7-27.31-32.7h-18.85v82.71h24.23Z"/>
  <path class="cls-1" d="M1214.16,318.68c0-2.31.38-4.62.77-6.92l36.55-218.89c3.08-17.7,15.39-28.85,33.08-28.85s29.62,11.16,32.7,28.85l36.55,218.89c.38,2.31.38,4.23.38,6.16,0,13.08-6.92,21.54-19.24,21.54s-20-8.08-21.93-20.39l-5-35.39v.77h-50.39l-5,35.39c-1.92,13.46-9.23,19.62-20,19.62-10,0-18.46-6.54-18.46-20.77ZM1303.02,247.9l-20-136.95h-.77l-19.62,136.95h40.39Z"/>
  <path class="cls-1" d="M1388.04,275.6c0-12.31,7.31-20.39,20-20.39,11.16,0,20,5.77,20,21.16,0,19.23,8.46,26.16,21.93,26.16s21.93-6.92,21.93-26.93c0-22.31-8.46-36.55-36.16-60.78-35.39-31.16-46.93-53.09-46.93-83.86,0-42.32,21.93-66.94,63.09-66.94s61.55,26.54,61.55,61.16c0,13.46-7.31,20.39-20,20.39-13.46,0-20-8.85-20-20.39,0-14.23-7.69-22.7-21.16-22.7s-21.16,7.31-21.16,25.77c0,19.62,8.85,33.85,36.54,58.09,35.39,31.16,46.55,52.7,46.55,86.17,0,43.85-22.31,68.47-63.86,68.47s-62.32-24.62-62.32-65.4Z"/>
  <path class="cls-1" d="M1557.68,315.99V89.02c0-12.31,8.85-21.16,21.16-21.16h77.32c11.16,0,19.24,8.08,19.24,19.23s-8.08,19.23-19.24,19.23h-56.16v71.17h41.16c11.16,0,19.24,8.08,19.24,19.23s-8.08,19.23-19.24,19.23h-41.16v82.71h56.16c11.16,0,19.24,8.08,19.24,19.24s-8.08,19.23-19.24,19.23h-77.32c-12.31,0-21.16-8.85-21.16-21.16Z"/>
  <g>
    <path class="cls-1" d="M140.33,45.97c77.21-7.44,149.69,41.39,168.64,116.84,32.24,128.3-94.81,236.04-215.37,183.28-11.89-3.68-65.22,15.32-71.99,12.33-.96-.43-2.21-1.06-2.72-1.93-2.95-5.01,6.48-56.46,6.46-66.47-63.29-97.73-1.84-232.79,114.98-244.05ZM144.9,101.08c-129.15,13.79-112.92,215.5,22.52,203.27,131.63-11.88,115.01-217.95-22.52-203.27Z"/>
    <path class="cls-1" d="M207.49,254.83c-35.62,34.04-97.35,23.1-116.58-22.46-2.33-5.53-8.38-19.92,1.44-19.97l131.45.38,3.9,3.82c-2.12,13.35-10.46,28.91-20.2,38.22Z"/>
    <path class="cls-1" d="M171.28,180.3c5.94-23.3,37.64-29.44,51.8-9.7,1.7,2.37,8.01,13.12,1.01,9.74-11.77-5.67-18.74-7.45-32.21-6.22-8.4.77-12.83,5.02-20.6,6.18Z"/>
    <path class="cls-1" d="M137.05,168.59c1.16,1.25,9.22,13.13,4.37,13.22-.5,0-4.74-3.46-6.55-4.14-15.63-5.91-33.76-5.51-47.8,4.18,3.31-23.44,33.73-30.76,49.98-13.25Z"/>
  </g>
</svg>