<?xml version="1.0" encoding="UTF-8"?>
<svg id="Layer_1" data-name="Layer 1" xmlns="http://www.w3.org/2000/svg" viewBox="0 0 702.25 772.73">
  <defs>
    <style>
      .cls-1 {
        fill: #fff;
      }

      .cls-2 {
        fill: #8183bf;
      }

      .cls-3 {
        fill: #df2926;
      }

      .cls-4 {
        fill: #f15645;
      }

      .cls-5 {
        fill: #9ab3dd;
      }

      .cls-6 {
        fill: #f9fafb;
      }

      .cls-7 {
        fill: #901e1d;
      }

      .cls-8 {
        fill: #fcb653;
      }

      .cls-9 {
        fill: #ffd765;
      }

      .cls-10 {
        fill: #3f1611;
      }

      .cls-11 {
        fill: none;
        stroke: #3f1611;
        stroke-linecap: round;
        stroke-linejoin: round;
        stroke-width: 12px;
      }
    </style>
  </defs>
  <circle class="cls-1" cx="409.62" cy="175.23" r="175.23"/>
  <path class="cls-1" d="M701.84,465.01c-1.32-10.78-5.93-20.59-12.98-28.01-2.87-112.37-94.67-202.89-207.09-202.89s-204.21,90.52-207.09,202.89c-7.06,7.42-11.66,17.22-12.98,28.01-1.86,15.19,2.68,30.4,12.49,42,.49.67,1.04,1.3,1.63,1.9.24.24.49.48.73.71.22.24.44.47.67.7.6.6,1.25,1.16,1.93,1.66,3,2.54,6.25,4.73,9.73,6.55,30.97,79.41,107.55,132.24,192.88,132.24s161.91-52.83,192.88-132.24c3.47-1.82,6.71-4,9.7-6.53.69-.51,1.34-1.07,1.96-1.68.23-.23.45-.46.67-.7.24-.23.49-.46.72-.7.59-.59,1.13-1.22,1.62-1.89,9.82-11.6,14.37-26.83,12.51-42.03Z"/>
  <circle class="cls-1" cx="201.37" cy="335.92" r="201.37" transform="translate(-178.55 240.78) rotate(-45)"/>
  <g>
    <circle class="cls-10" cx="416.5" cy="162.47" r="142.38"/>
    <circle class="cls-9" cx="416.5" cy="162.47" r="128.77"/>
    <g>
      <path class="cls-10" d="M389.74,134.89h-59.72c-3.69,0-6.68,2.99-6.68,6.68s2.99,6.68,6.68,6.68h3.12v119.7c0,3.69,2.99,6.68,6.68,6.68s6.68-2.99,6.68-6.68v-119.7h22v142.99c0,3.69,2.99,6.68,6.68,6.68s6.68-2.99,6.68-6.68v-142.99h7.9c3.69,0,6.68-2.99,6.68-6.68s-2.99-6.68-6.68-6.68Z"/>
      <path class="cls-5" d="M346.49,148.25h22v133.56s-15.8-6.69-22-10.99v-122.57Z"/>
      <path class="cls-10" d="M443.26,134.89h59.72c3.69,0,6.68,2.99,6.68,6.68,0,3.69-2.99,6.68-6.68,6.68h-3.12s0,119.7,0,119.7c0,3.69-2.99,6.68-6.68,6.68s-6.68-2.99-6.68-6.68v-119.7s-22,0-22,0v142.99c0,3.69-2.99,6.68-6.68,6.68s-6.68-2.99-6.68-6.68v-142.99s-7.9,0-7.9,0c-3.69,0-6.68-2.99-6.68-6.68,0-3.69,2.99-6.68,6.68-6.68Z"/>
      <path class="cls-5" d="M486.51,148.25h-22s0,133.56,0,133.56c0,0,15.8-6.69,22-10.99v-122.57Z"/>
    </g>
    <path class="cls-10" d="M395.49,213.58c1.24,0,2.5.35,3.62,1.07,15.87,10.25,34.97-.11,35.16-.22,3.22-1.78,7.28-.63,9.08,2.58,1.79,3.21.67,7.26-2.54,9.07-1.06.6-26.23,14.47-48.95-.21-3.1-2-3.99-6.13-1.98-9.23,1.28-1.98,3.42-3.05,5.61-3.05Z"/>
  </g>
  <path class="cls-6" d="M224.51,437c-89.88,0-162.99,73.12-162.99,162.99,0,31.04,8.77,61.24,25.35,87.33,14.22,22.37,33.6,40.88,56.44,54.02,4.62,18.02,21,31.38,40.45,31.38h87c20.79,0,38.08-15.27,41.24-35.19,46.84-29.82,75.51-81.56,75.51-137.55,0-89.88-73.12-162.99-162.99-162.99Z"/>
  <g>
    <circle class="cls-10" cx="227.26" cy="591.36" r="143.88"/>
    <circle class="cls-9" cx="227.26" cy="591.36" r="130.12"/>
    <path class="cls-8" d="M317.25,497.93v.07s54.06,60.09,18.01,141.85c-36.05,81.76-117.16,68.24-117.16,68.24l-44.1,2.28c16.11,7.15,33.94,11.13,52.71,11.13,71.86,0,130.12-58.26,130.12-130.12,0-36.67-15.17-69.79-39.58-93.44Z"/>
    <g>
      <path class="cls-10" d="M295.92,634.08c-1.2-8.33-10.02-49.86-65.91-49.86s-64.71,41.54-65.91,49.86c-.15,1.04-.23,2.11-.23,3.19v85.07c0,12.48,10.15,22.63,22.63,22.63h87c12.48,0,22.63-10.15,22.63-22.63v-85.07c0-1.08-.08-2.15-.23-3.19ZM177.38,722.34v-85.07c0-.44.03-.86.09-1.26.4-2.8,2.29-12.61,9.66-21.48,9.27-11.16,23.7-16.82,42.89-16.82s33.62,5.66,42.89,16.82c7.37,8.87,9.25,18.68,9.66,21.48.06.41.09.82.09,1.26v12.61c-12.16-.17-36.82,2.28-63.3,21.04-28.21,19.98-32.38,47.35-32.59,60.56h-.24c-5.04,0-9.14-4.1-9.14-9.14ZM273.51,731.48h-73.27c.19-10.51,3.56-33,26.91-49.55,16.63-11.78,32.33-16.09,42.58-17.63,5.29-.8,9.71-.96,12.92-.91v58.94c0,5.04-4.1,9.14-9.14,9.14Z"/>
      <path class="cls-7" d="M177.38,722.34v-85.07c0-.44.03-.86.09-1.26.4-2.8,2.29-12.61,9.66-21.48,9.27-11.16,23.7-16.82,42.89-16.82s33.62,5.66,42.89,16.82c7.37,8.87,9.25,18.68,9.66,21.48.06.41.09.82.09,1.26v12.61c-12.16-.17-36.82,2.28-63.3,21.04-28.21,19.98-32.38,47.35-32.59,60.56h-.24c-5.04,0-9.14-4.1-9.14-9.14Z"/>
      <path class="cls-4" d="M273.51,731.48h-73.27c.19-10.51,3.56-33,26.91-49.55,16.63-11.78,32.33-16.09,42.58-17.63,5.29-.8,9.71-.96,12.92-.91v58.94c0,5.04-4.1,9.14-9.14,9.14Z"/>
      <path class="cls-3" d="M278.06,663.47l.23,1.12s0,43.69-7.72,51.42c-7.72,7.72-11.59,9.17-20.76,9.17h-48.28l-.73-.73c-.37,2.68-.51,5.06-.55,7.02h73.27c5.04,0,9.14-4.1,9.14-9.14v-58.94c-1.33-.02-2.88,0-4.6.08Z"/>
    </g>
    <g>
      <g>
        <circle class="cls-10" cx="161.77" cy="551.28" r="26.07"/>
        <circle class="cls-6" cx="161.77" cy="551.28" r="12.23"/>
      </g>
      <g>
        <circle class="cls-10" cx="286.01" cy="551.28" r="26.07"/>
        <circle class="cls-6" cx="286.01" cy="551.28" r="12.23"/>
      </g>
    </g>
  </g>
  <circle class="cls-10" cx="210.11" cy="323.82" r="164.27"/>
  <circle class="cls-9" cx="210.11" cy="323.82" r="148.59"/>
  <circle class="cls-10" cx="273.12" cy="270.73" r="31.64"/>
  <circle class="cls-6" cx="273.12" cy="270.73" r="15.68"/>
  <circle class="cls-10" cx="147.09" cy="294.94" r="31.64"/>
  <circle class="cls-6" cx="147.09" cy="294.94" r="15.68"/>
  <path class="cls-10" d="M310.53,344.97c-2.61-2.36-6.65-2.17-9.04.42-.06.06-5.6,5.98-18.55,11.83-12.04,5.44-33.11,11.93-65.08,11.93s-54.49-6.58-67.54-12.09c-14.09-5.96-20.7-11.99-20.77-12.05-2.58-2.41-6.62-2.28-9.04.29-2.43,2.57-2.31,6.63.26,9.06.42.39,4.22,3.89,11.84,8.26l-6.9,24.06c-1.29,4.51-1.82,8.96-1.56,13.24.47,7.69,2.75,14.71,6.77,20.85,7.66,11.69,20.86,18.45,34.8,18.45,3.4,0,6.85-.4,10.28-1.24,8.06-1.97,15.3-6.31,20.93-12.56,3.61-4.01,6.36-8.82,8.16-14.29l8.99-27.35c.2-.61.27-1.23.29-1.85,1.16.02,2.3.04,3.49.04,67.36,0,92.13-26.86,93.16-28,2.35-2.62,2.12-6.63-.49-9ZM192.91,407.12c-1.24,3.77-3.09,7.04-5.5,9.72-3.96,4.39-8.81,7.31-14.44,8.69-12.17,2.97-24.75-1.77-31.32-11.78-2.79-4.25-4.36-9.16-4.69-14.59-.17-2.83.19-5.83,1.08-8.93l6.25-21.77c5.36,2.32,11.72,4.63,19.08,6.67l-4.65,18.01c-1.15,4.46,1.53,9,5.98,10.15.7.18,1.4.27,2.09.27,3.71,0,7.09-2.49,8.06-6.25l4.78-18.51c6.63,1.17,13.87,2.09,21.74,2.63l-8.46,25.72Z"/>
  <path class="cls-4" d="M192.91,407.12c-1.24,3.77-3.09,7.04-5.5,9.72-3.96,4.39-8.81,7.31-14.44,8.69-12.17,2.97-24.75-1.77-31.32-11.78-2.79-4.25-4.36-9.16-4.69-14.59-.17-2.83.19-5.83,1.08-8.93l6.25-21.77c5.36,2.32,11.72,4.63,19.08,6.67l-4.65,18.01c-1.15,4.46,1.53,9,5.98,10.15.7.18,1.4.27,2.09.27,3.71,0,7.09-2.49,8.06-6.25l4.78-18.51c6.63,1.17,13.87,2.09,21.74,2.63l-8.46,25.72Z"/>
  <path class="cls-3" d="M195.74,393.54c.55.03,1.06.09,1.59.14l4.04-12.28c-7.87-.54-15.11-1.46-21.74-2.63l-3.18,12.3c5.88,1.17,12.35,2.07,19.29,2.47Z"/>
  <path class="cls-3" d="M141.81,379.23s6.88,3.89,18.51,7.65l3.04-11.78c-7.36-2.04-13.71-4.34-19.08-6.67l-3.13,10.92.66-.13Z"/>
  <path class="cls-8" d="M312.31,215.97l-.3.37s56.87,65.36,27.52,152.1c-25.2,74.47-94.74,99.88-127.85,103.95,81.34-.85,147.01-67.03,147.01-148.57,0-42.47-17.82-80.77-46.38-107.85Z"/>
  <ellipse class="cls-10" cx="474.42" cy="428.58" rx="183.28" ry="184.41"/>
  <circle class="cls-9" cx="474.42" cy="428.58" r="166.55"/>
  <path class="cls-8" d="M584.47,303.59l-.22,1.05s51.55,58.54,40.32,135.68c-11.15,76.55-65.94,142.89-159.8,154.53,3.19.18,6.41.29,9.65.29,91.98,0,166.55-74.57,166.55-166.55,0-49.79-21.86-94.47-56.49-124.99Z"/>
  <path class="cls-10" d="M661.26,481.07c14.14-15.72,12.07-41.89-5.91-51.65-12.56-6.82-38.52-13.15-53.9-16.51-5.79-1.26-10.94,3.89-9.68,9.68,3.36,15.38,9.69,41.34,16.51,53.9,9.77,17.98,35.93,20.05,51.65,5.91l.04.04c.22-.22.43-.45.64-.68.23-.21.46-.42.68-.64l-.04-.04Z"/>
  <path class="cls-5" d="M645.69,442.03c-11.9-7.27-36.35-11.57-36.35-11.57,0,0,4.3,24.45,11.57,36.35,7.27,11.9,22.47,5.95,25.78,2.64l1.65-1.65c3.3-3.3,9.25-18.51-2.64-25.78Z"/>
  <path class="cls-10" d="M287.57,481.07c-14.14-15.72-12.07-41.89,5.91-51.65,12.56-6.82,38.52-13.15,53.9-16.51,5.79-1.26,10.94,3.89,9.68,9.68-3.36,15.38-9.69,41.34-16.51,53.9-9.77,17.98-35.93,20.05-51.65,5.91l-.04.04c-.22-.22-.43-.45-.64-.68-.23-.21-.46-.42-.68-.64l.04-.04Z"/>
  <path class="cls-5" d="M303.14,442.03c11.9-7.27,36.35-11.57,36.35-11.57,0,0-4.3,24.45-11.57,36.35-7.27,11.9-22.47,5.95-25.78,2.64l-1.65-1.65c-3.3-3.3-9.25-18.51,2.64-25.78Z"/>
  <path class="cls-2" d="M303.14,442.04c.97-.59,2.04-1.17,3.16-1.72-1.79,3.71-8.21,20.1,10.82,33.47-6.41.73-12.94-2.3-14.97-4.33l-1.65-1.65c-3.3-3.3-9.25-18.51,2.64-25.78Z"/>
  <path class="cls-7" d="M374.29,436.82h200.26s-3.97,82.61-100.13,93.85c0,0-90.88-3.97-100.13-93.85Z"/>
  <polyline class="cls-11" points="578.51 348.26 530.27 369.41 578.51 392.54"/>
  <polyline class="cls-11" points="370.32 348.26 418.57 369.41 370.32 392.54"/>
  <path class="cls-10" d="M581.23,430.45c-1.74-1.83-4.16-2.86-6.69-2.86h-200.26c-2.61,0-5.11,1.11-6.86,3.05s-2.6,4.53-2.33,7.13c5.2,50.56,34.69,75.71,58.51,87.91,25.38,13,49.39,14.18,50.4,14.22.13,0,.27,0,.4,0,.36,0,.72-.02,1.07-.06,53.44-6.24,80.08-33.69,93.01-55.62,14.01-23.75,15.23-46.02,15.27-46.96.12-2.52-.8-4.99-2.54-6.82ZM474.14,521.41c-4.39-.3-25.88-2.36-46.91-14.66,10.44-7.62,49.66-31.63,93.75-.33-12.05,7.12-27.36,12.62-46.84,14.99ZM536.45,494.95c-.17-.15-.34-.31-.53-.45-33.41-25.9-65.23-24.47-86.03-18.7-22.31,6.18-36.76,18.49-37.36,19.01-.25.22-.49.44-.71.68-12.18-11.09-22.52-26.89-26.86-49.42h178.93c-2.49,11.81-9.27,32.13-27.45,48.89Z"/>
  <path class="cls-4" d="M474.14,521.41c-4.39-.3-25.88-2.36-46.91-14.66,10.44-7.62,49.66-31.63,93.75-.33-12.05,7.12-27.36,12.62-46.84,14.99Z"/>
  <path class="cls-3" d="M433.47,502.84c-2.47,1.49-4.47,2.85-5.91,3.9,21.03,12.3,42.52,14.36,46.91,14.66,19.48-2.37,34.79-7.87,46.84-14.99-2.01-1.43-4.01-2.7-6-3.91-38.28,23.01-75.36,4.02-81.83.34Z"/>
  <path class="cls-2" d="M645.54,442.04c-.97-.59-2.04-1.17-3.16-1.72,1.79,3.71,8.21,20.1-10.82,33.47,6.41.73,12.94-2.3,14.97-4.33l1.65-1.65c3.3-3.3,9.25-18.51-2.64-25.78Z"/>
</svg>