<?xml version="1.0" encoding="UTF-8"?>
<svg id="Layer_1" data-name="Layer 1" xmlns="http://www.w3.org/2000/svg" viewBox="0 0 328.55 328.55">
  <defs>
    <style>
      .cls-1 {
        fill: #df2926;
      }

      .cls-2 {
        fill: #f15645;
      }

      .cls-3 {
        fill: #f9fafb;
      }

      .cls-4 {
        fill: #fcb653;
      }

      .cls-5 {
        fill: #ffd765;
      }

      .cls-6 {
        fill: #3f1611;
      }
    </style>
  </defs>
  <circle class="cls-6" cx="164.27" cy="164.27" r="164.27"/>
  <circle class="cls-5" cx="164.27" cy="164.27" r="148.59"/>
  <circle class="cls-6" cx="227.28" cy="111.18" r="31.64"/>
  <circle class="cls-3" cx="227.28" cy="111.18" r="15.68"/>
  <circle class="cls-6" cx="101.26" cy="135.39" r="31.64"/>
  <circle class="cls-3" cx="101.26" cy="135.39" r="15.68"/>
  <path class="cls-6" d="M264.69,185.43c-2.61-2.36-6.65-2.17-9.04.42-.06.06-5.6,5.98-18.55,11.83-12.04,5.44-33.11,11.93-65.08,11.93s-54.49-6.58-67.54-12.09c-14.09-5.96-20.7-11.99-20.77-12.05-2.58-2.41-6.62-2.28-9.04.29-2.43,2.57-2.31,6.63.26,9.06.42.39,4.22,3.89,11.84,8.26l-6.9,24.06c-1.29,4.51-1.82,8.96-1.56,13.24.47,7.69,2.75,14.71,6.77,20.85,7.66,11.69,20.86,18.45,34.8,18.45,3.4,0,6.85-.4,10.28-1.24,8.06-1.97,15.3-6.31,20.93-12.56,3.61-4.01,6.36-8.82,8.16-14.29l8.99-27.35c.2-.61.27-1.23.29-1.85,1.16.02,2.3.04,3.49.04,67.36,0,92.13-26.86,93.16-28,2.35-2.62,2.12-6.63-.49-9ZM147.08,247.57c-1.24,3.77-3.09,7.04-5.5,9.72-3.96,4.39-8.81,7.31-14.44,8.69-12.17,2.97-24.75-1.77-31.32-11.78-2.79-4.25-4.36-9.16-4.69-14.59-.17-2.83.19-5.83,1.08-8.93l6.25-21.77c5.36,2.32,11.72,4.63,19.08,6.67l-4.65,18.01c-1.15,4.46,1.53,9,5.98,10.15.7.18,1.4.27,2.09.27,3.71,0,7.09-2.49,8.06-6.25l4.78-18.51c6.63,1.17,13.87,2.09,21.74,2.63l-8.46,25.72Z"/>
  <path class="cls-2" d="M147.08,247.57c-1.24,3.77-3.09,7.04-5.5,9.72-3.96,4.39-8.81,7.31-14.44,8.69-12.17,2.97-24.75-1.77-31.32-11.78-2.79-4.25-4.36-9.16-4.69-14.59-.17-2.83.19-5.83,1.08-8.93l6.25-21.77c5.36,2.32,11.72,4.63,19.08,6.67l-4.65,18.01c-1.15,4.46,1.53,9,5.98,10.15.7.18,1.4.27,2.09.27,3.71,0,7.09-2.49,8.06-6.25l4.78-18.51c6.63,1.17,13.87,2.09,21.74,2.63l-8.46,25.72Z"/>
  <path class="cls-1" d="M149.91,233.99c.55.03,1.06.09,1.59.14l4.04-12.28c-7.87-.54-15.11-1.46-21.74-2.63l-3.18,12.3c5.88,1.17,12.35,2.07,19.29,2.47Z"/>
  <path class="cls-1" d="M95.98,219.69s6.88,3.89,18.51,7.65l3.04-11.78c-7.36-2.04-13.71-4.34-19.08-6.67l-3.13,10.92.66-.13Z"/>
  <path class="cls-4" d="M266.48,56.42l-.3.37s56.87,65.36,27.52,152.1c-25.2,74.47-94.74,99.88-127.85,103.95,81.34-.85,147.01-67.03,147.01-148.57,0-42.47-17.82-80.77-46.38-107.85Z"/>
</svg>