<?xml version="1.0" encoding="UTF-8"?>
<svg id="Layer_1" data-name="Layer 1" xmlns="http://www.w3.org/2000/svg" viewBox="0 0 324.87 335.87">
  <defs>
    <style>
      .cls-1 {
        fill: #df2926;
      }

      .cls-2 {
        fill: #f15645;
      }

      .cls-3 {
        fill: #f9fafb;
      }

      .cls-4 {
        fill: #901e1d;
      }

      .cls-5 {
        fill: #fcb653;
      }

      .cls-6 {
        fill: #ffd765;
      }

      .cls-7 {
        fill: #3f1611;
      }
    </style>
  </defs>
  <circle class="cls-7" cx="162.44" cy="162.44" r="162.44"/>
  <circle class="cls-6" cx="162.44" cy="162.44" r="146.9"/>
  <path class="cls-5" d="M264.03,56.95l-.02.08s61.05,67.84,20.35,160.14c-40.7,92.3-132.27,77.04-132.27,77.04l-49.78,2.57c18.19,8.07,38.32,12.56,59.51,12.56,81.13,0,146.9-65.77,146.9-146.9,0-41.4-17.13-78.79-44.68-105.49Z"/>
  <g>
    <path class="cls-7" d="M239.95,210.68c-1.35-9.4-11.31-56.29-74.41-56.29s-73.05,46.89-74.41,56.29c-.17,1.17-.25,2.38-.25,3.6v96.04c0,14.09,11.46,25.55,25.55,25.55h98.22c14.09,0,25.55-11.46,25.55-25.55v-96.04c0-1.22-.09-2.43-.25-3.6ZM106.11,310.31v-96.04c0-.5.03-.97.1-1.42.46-3.16,2.59-14.24,10.9-24.25,10.47-12.6,26.76-18.98,48.43-18.98s37.96,6.39,48.43,18.98c8.32,10.01,10.45,21.09,10.9,24.25.07.46.1.92.1,1.42v14.24c-13.73-.19-41.57,2.58-71.46,23.75-31.85,22.56-36.56,53.46-36.8,68.37h-.28c-5.69,0-10.32-4.63-10.32-10.32ZM214.65,320.63h-82.72c.21-11.86,4.02-37.26,30.39-55.94,18.77-13.3,36.5-18.16,48.07-19.91,5.98-.9,10.96-1.08,14.58-1.02v66.55c0,5.69-4.63,10.32-10.32,10.32Z"/>
    <path class="cls-4" d="M106.11,310.31v-96.04c0-.5.03-.97.1-1.42.46-3.16,2.59-14.24,10.9-24.25,10.47-12.6,26.76-18.98,48.43-18.98s37.96,6.39,48.43,18.98c8.32,10.01,10.45,21.09,10.9,24.25.07.46.1.92.1,1.42v14.24c-13.73-.19-41.57,2.58-71.46,23.75-31.85,22.56-36.56,53.46-36.8,68.37h-.28c-5.69,0-10.32-4.63-10.32-10.32Z"/>
    <path class="cls-2" d="M214.65,320.63h-82.72c.21-11.86,4.02-37.26,30.39-55.94,18.77-13.3,36.5-18.16,48.07-19.91,5.98-.9,10.96-1.08,14.58-1.02v66.55c0,5.69-4.63,10.32-10.32,10.32Z"/>
    <path class="cls-1" d="M219.78,243.86l.26,1.27s0,49.33-8.72,58.05c-8.72,8.72-13.08,10.36-23.44,10.36h-54.51l-.83-.83c-.41,3.03-.58,5.71-.62,7.92h82.72c5.69,0,10.32-4.63,10.32-10.32v-66.55c-1.5-.02-3.25,0-5.19.09Z"/>
  </g>
  <g>
    <g>
      <circle class="cls-7" cx="88.49" cy="117.19" r="29.43"/>
      <circle class="cls-3" cx="88.49" cy="117.19" r="13.81"/>
    </g>
    <g>
      <circle class="cls-7" cx="228.76" cy="117.19" r="29.43"/>
      <circle class="cls-3" cx="228.76" cy="117.19" r="13.81"/>
    </g>
  </g>
</svg>